<?xml version="1.0" encoding="utf-8"?>
<!-- Generator: Adobe Illustrator 24.2.1, SVG Export Plug-In . SVG Version: 6.00 Build 0)  -->
<svg version="1.1" id="Capa_1" xmlns="http://www.w3.org/2000/svg" xmlns:xlink="http://www.w3.org/1999/xlink" x="0px" y="0px"
	 viewBox="0 0 96 96" style="enable-background:new 0 0 96 96;" xml:space="preserve">
<style type="text/css">
	.st0{fill:#676A69;}
</style>
<path class="st0" d="M33.4,27.6h-6c-1.5,0-2.6-1.2-2.6-2.6c0-1.5,1.2-2.6,2.6-2.6c0,0,0,0,0,0h5.8c1,0,2.1,0.5,2.8,1.3
	c1.1,1.1,2.8,1.2,3.9,0.1c1.1-1.1,1.2-2.8,0.1-3.9c-1.8-1.9-4.3-3-6.9-3c0,0,0,0,0,0h0v-2.5c0-1.5-1.2-2.8-2.8-2.8
	c-1.5,0-2.8,1.2-2.8,2.8v2.5c-5.1,0-8.4,3.9-8.4,8.2c0,4.5,3.7,8.2,8.2,8.2h6c1.5,0,2.6,1.2,2.6,2.6c0,1.5-1.2,2.6-2.6,2.6
	c0,0,0,0,0,0H27c-0.7,0-1.5-0.3-2.2-0.7c-1.3-0.9-3-0.6-3.9,0.7c-0.9,1.3-0.6,3,0.7,3.9c2,1.4,3.8,1.7,5.9,1.7v2.5
	c0,1.5,1.2,2.8,2.8,2.8c1.5,0,2.8-1.2,2.8-2.8V44c5.1,0,8.4-3.9,8.4-8.2C41.6,31.3,37.9,27.6,33.4,27.6L33.4,27.6z"/>
<path class="st0" d="M59.4,36.6c3.9-18.6-10.3-36-29.1-36C13.9,0.6,0.6,14,0.6,30.4c0,18.8,17.4,33.1,36,29.1
	C32.6,78,46.8,95.4,65.7,95.4c16.4,0,29.7-13.3,29.7-29.7C95.4,46.9,78,32.6,59.4,36.6L59.4,36.6z M6.2,30.4C6.2,17,17,6.2,30.3,6.2
	C47.1,6.2,58.8,23,53,38.7c-6.2,3-11.3,8-14.3,14.3C23,58.9,6.2,47.2,6.2,30.4L6.2,30.4z M65.7,89.8c-13.3,0-24.2-10.8-24.2-24.2
	c0-13.3,10.8-24.2,24.2-24.2s24.2,10.8,24.2,24.2C89.8,79,79,89.8,65.7,89.8z"/>
<path class="st0" d="M75.2,75.4c-3.9-1.2-8-1.6-12-1.2c0.6-1.7,1-3.5,1.2-5.3h3.3c1.5,0,2.8-1.2,2.8-2.8s-1.2-2.8-2.8-2.8h-3.2
	c-0.1-0.9-0.1-1.1-0.3-3.3c-0.4-3.6,4-5.5,6.4-2.8c1,1.2,2.8,1.3,3.9,0.2c1.2-1,1.3-2.8,0.2-3.9c-5.9-6.7-17.1-1.8-16.1,7.1
	c0.3,2.3,0.2,2.1,0.3,2.7h-2c-1.5,0-2.8,1.2-2.8,2.8s1.2,2.8,2.8,2.8h1.8c-0.4,2.7-1.3,5.3-2.7,7.8c-1.2,2.2,0.8,4.7,3.2,4
	c4.7-1.3,9.1-1.6,14.2,0c1.5,0.5,3-0.3,3.5-1.8C77.5,77.5,76.6,75.9,75.2,75.4L75.2,75.4z"/>
<path class="st0" d="M69.8,9.4c5.5,0,11.3,4.1,11.3,11.8v2.6l-2.5-2.5c-1.1-1.1-2.9-1.1-3.9,0c-1.1,1.1-1.1,2.9,0,3.9l7.3,7.3
	c1.1,1.1,2.8,1.1,3.9,0l7.3-7.3c1.1-1.1,1.1-2.9,0-3.9c-1.1-1.1-2.9-1.1-3.9,0l-2.5,2.5v-2.6C86.7,11,79,3.8,69.8,3.8
	C68.3,3.8,67,5,67,6.6S68.3,9.4,69.8,9.4L69.8,9.4z"/>
<path class="st0" d="M26.2,86.6c-5.5,0-11.3-4.1-11.3-11.8v-2.6l2.5,2.5c1.1,1.1,2.9,1.1,3.9,0c1.1-1.1,1.1-2.9,0-3.9l-7.3-7.3
	c-1.1-1.1-2.9-1.1-3.9,0l-7.3,7.3c-1.1,1.1-1.1,2.9,0,3.9c1.1,1.1,2.9,1.1,3.9,0l2.5-2.5v2.6C9.3,85,17,92.2,26.2,92.2
	c1.5,0,2.8-1.2,2.8-2.8S27.7,86.6,26.2,86.6z"/>
</svg>
