<?xml version="1.0" encoding="utf-8"?>
<!-- Generator: Adobe Illustrator 26.2.1, SVG Export Plug-In . SVG Version: 6.00 Build 0)  -->
<svg version="1.1" id="Layer_1" xmlns="http://www.w3.org/2000/svg" xmlns:xlink="http://www.w3.org/1999/xlink" x="0px" y="0px"
	 viewBox="0 0 150 150" style="enable-background:new 0 0 150 150;" xml:space="preserve">
<style type="text/css">
	.st0{fill:none;stroke:#B2B9BD;stroke-width:1.2072;stroke-dasharray:2.4144;}
	.st1{fill:none;stroke:#B2B9BD;stroke-width:1.2072;stroke-dasharray:3.6216;}
	.st2{fill:none;stroke:#B2B9BD;stroke-width:0.6036;}
	.st3{fill:none;stroke:#B2B9BD;stroke-width:0.6036;stroke-dasharray:1.2175,1.2175;}
	.st4{fill:none;stroke:#B2B9BD;stroke-width:0.3429;}
	.st5{fill:none;stroke:#B2B9BD;stroke-width:0.3429;stroke-dasharray:0.6915,0.6915;}
	.st6{fill:#9CA1A7;}
	.st7{clip-path:url(#SVGID_00000178199176552173073300000004208464973263479740_);}
	.st8{fill:#1B1B1E;}
	.st9{fill:#2EA9EB;}
	.st10{fill:#FBE9DC;}
	.st11{fill:#FF8A08;}
	.st12{fill:#CAE50B;}
	.st13{fill:#ECD6C8;}
	.st14{fill:#FC4100;}
	.st15{fill:#FFFFFF;}
	.st16{fill:#332722;}
	.st17{fill:#47342A;}
	.st18{fill:#F9B5A5;}
	.st19{fill:#FCA7C0;}
	.st20{clip-path:url(#SVGID_00000183938186714958090490000003192405594143573655_);}
	.st21{opacity:0.21;fill:#FFFFFF;enable-background:new    ;}
	.st22{opacity:0.76;fill:#FFFFFF;enable-background:new    ;}
	.st23{opacity:0.58;fill:#3E4799;enable-background:new    ;}
	.st24{fill:none;}
	.st25{fill:#FF6500;}
	.st26{fill:#C40C0C;}
</style>
<g>
	<path class="st0" d="M32.1,127.9"/>
	<path class="st1" d="M106.7,84.3l-0.1-18.4c0-2.9-2.4-5.3-5.3-5.3L37,61c-2.9,0-5.3,2.4-5.3,5.3l0.1,13"/>
	<g>
		<g>
			<path class="st2" d="M148.2,47.4c0,0.2,0,0.4,0.1,0.6"/>
			<path class="st3" d="M148.3,49.2c0.7,12.6-9.6,17.5-17.2,14.6c-6.4-2.4-2.8-12,3.8-9.6c7.2,2.6,3.8,11.8-2.6,16
				c-3.1,2-6.5,2.6-8.2,2.8"/>
			<path class="st2" d="M123.5,73c-0.4,0-0.6,0-0.6,0"/>
		</g>
	</g>
	<g>
		<g>
			<path class="st4" d="M15.3,106.9c0,0.1,0,0.2,0,0.3"/>
			<path class="st5" d="M15.4,108c0.4,7.2-5.4,9.9-9.8,8.3c-3.6-1.4-1.6-6.8,2.2-5.5c4.1,1.5,2.2,6.7-1.5,9.1
				c-1.8,1.2-3.7,1.5-4.7,1.6"/>
			<path class="st4" d="M1.3,121.5c-0.2,0-0.3,0-0.3,0"/>
		</g>
	</g>
	<g>
		<g>
			<path class="st6" d="M105,132.1c0,0.1,0,0.1,0.1,0.2c6.1,3.6,8.3,1.5,8.9,0.4c0.2-0.4,0.4-0.8,0.4-1.2c0-0.1,0-0.1-0.1-0.2
				c-0.1,0-0.1,0-0.2,0c-0.8,0.5-3,1.5-5.5,1.3c-0.1,0-0.2-0.1-0.2-0.2c0-0.1,0.1-0.2,0.2-0.2c0.2,0,0.4,0,0.6,0c0.1,0,0.1,0,0.2,0
				s0.2,0,0.3,0c0.1,0,0.2,0,0.3,0h0.1c2.8-0.3,5.3-1.9,5.8-2.7c0.1-0.1,0-0.2-0.1-0.3s-0.2,0-0.3,0.1c-0.2,0.3-0.6,0.7-1.3,1.1
				c-0.2-0.7-0.8-1.3-1.5-1.7c-2-1.2-3.6,0.5-4.4,1.4c-1.1,1.2-2.3,1.6-3.2,1.9C105.1,132,105,132,105,132.1z"/>
		</g>
	</g>
	<g>
		<g>
			<path class="st6" d="M7.8,95.4C7.8,95.5,7.8,95.5,7.8,95.4c4.7,2.8,6.3,1.2,6.8,0.4c0.2-0.3,0.3-0.6,0.3-0.9c0-0.1,0-0.1-0.1-0.1
				h-0.1c-0.6,0.4-2.3,1.2-4.2,1c-0.1,0-0.1-0.1-0.1-0.1c0-0.1,0.1-0.1,0.1-0.1c0.1,0,0.3,0,0.4,0c0.1,0,0.1,0,0.2,0
				c0.1,0,0.2,0,0.2,0c0.1,0,0.2,0,0.2,0s0,0,0.1,0c2.1-0.2,4-1.4,4.3-2c0-0.1,0-0.2,0-0.2h-0.2c-0.1,0.2-0.5,0.5-1,0.8
				c-0.2-0.5-0.6-0.9-1.1-1.3c-1.5-0.9-2.7,0.4-3.3,1C9.4,94.8,8.6,95.1,7.8,95.4C7.9,95.3,7.8,95.3,7.8,95.4z"/>
		</g>
	</g>
	<g>
		<g>
			<path class="st6" d="M124.8,79.1C124.8,79.1,124.8,79.2,124.8,79.1c3.7,2.3,5,1,5.4,0.3c0.1-0.2,0.2-0.5,0.2-0.7
				c0,0,0-0.1-0.1-0.1h-0.1c-0.5,0.3-1.8,0.9-3.3,0.8c-0.1,0-0.1-0.1-0.1-0.1c0-0.1,0.1-0.1,0.1-0.1c0.1,0,0.2,0,0.3,0h0.1
				c0.1,0,0.1,0,0.2,0s0.1,0,0.2,0c0,0,0,0,0.1,0c1.6-0.2,3.2-1.1,3.4-1.6c0-0.1,0-0.1,0-0.1c-0.1,0-0.1,0-0.1,0
				c-0.1,0.2-0.4,0.4-0.8,0.6c-0.1-0.4-0.5-0.7-0.9-1c-1.2-0.7-2.1,0.3-2.6,0.8C126.1,78.6,125.4,78.9,124.8,79.1
				C124.8,79,124.8,79.1,124.8,79.1z"/>
		</g>
	</g>
	<g>
		<g>
			<g>
				<defs>
					<path id="SVGID_1_" d="M26,83.4l0.8-67.9l82.5,2.8l-2.6,66l-34,0.2L66,78.8L29.9,79C27.5,79,25.7,81.1,26,83.4z"/>
				</defs>
				<clipPath id="SVGID_00000083052297821348260140000018328955239289411211_">
					<use xlink:href="#SVGID_1_"  style="overflow:visible;"/>
				</clipPath>
				<g style="clip-path:url(#SVGID_00000083052297821348260140000018328955239289411211_);">
					<path class="st8" d="M86.5,97.9c0,0-0.5,8.4-2.3,15.7c-1.3,5.1-4,9.6-4.4,10.5c-0.4-0.2-6.4-1.2-6.4-1.1c0,0,2-4.7,2.5-10.3
						c0.7-7.5,0.1-16.5,0.1-16.5L86.5,97.9z"/>
					<path class="st9" d="M74.6,124.1l-2.8-0.5c-0.3-0.1-0.5-0.3-0.4-0.6c0.3-1.2,1.2-3.2,4-2.7s3.2,2.7,3.1,3.9
						c0,0.3-0.3,0.5-0.6,0.5C77.4,124.6,75.9,124.3,74.6,124.1z"/>
					<path class="st9" d="M79.3,123.5c0,0,0,0.4-1.6,0.2l-1.7,0.5c0,0,1.4,0.9,3.8,0.5c1.7-0.3-0.2-1.9-0.2-1.9L79.3,123.5z"/>
					<path class="st10" d="M91,72.4c0,0,1.1-0.3,3.2,1.9c0.6,0.6,2.2,0.9,2.7,1.8c1.4,2.6,1.9,6.9,2.6,10.1c0.8,3.4,1.7,5.7,2.3,5.9
						c1.6,0.7,1.4-0.9,0,0s-3,3-3.7,1.9s-6.9-13.3-6.6-17.9C92,72.5,91,72.4,91,72.4z"/>
					<path class="st8" d="M85.6,97.3c0,0,1.4,6.1,2,12.6s0.5,13.2,0.8,14.3c0.4-0.1,6.5-0.2,6.5-0.1c0-0.1,1.2-6.6,1.5-13.2
						c0.3-6.8-0.1-13.7-0.1-13.7L85.6,97.3z"/>
					<path class="st9" d="M91.9,125.8l2.8-0.1c0.3,0,0.6-0.3,0.5-0.6c-0.1-1.3-0.7-3.3-3.6-3.3c-2.9,0.1-3.6,2.2-3.7,3.4
						c0,0.3,0.2,0.6,0.6,0.6C89.1,125.8,90.6,125.8,91.9,125.8z"/>
					<path class="st10" d="M80.9,76.3c0,0,0.2,1-2.1,2.7c-0.6,0.5,0.2-0.4-0.7,0c-1.7,0.6-2.6,3.3-3.9,5.1c-1.7,2.4-4.1,3.1-5.1,1.9
						c-0.9-1-1.1-2.2-1.5-3.3c-1-3.3-2.1-7.8-2.4-9.4c-0.6-1.1,3.1-3.4,3.7-2.7c0.3,0.3,2.2,7.5,2.1,8.1c0.8-1.3,3-5,3.8-5.2
						c2.4-0.8,1.8,0.7,3.2,1C81,75.2,80.9,76.3,80.9,76.3z"/>
					<path class="st11" d="M82.6,70c0,0,0.7,0.9-0.7,3.8c-0.4,0.8,0,2.4-0.8,3.3c-1.5,1.8-2.5,2.4-4.8,3.9c0,0-3.7-0.8-4.7-3.7
						C76.9,67.5,82.6,70,82.6,70z"/>
					<path class="st11" d="M94.9,83.1c0-0.2-0.6-1.8-0.6-2.1c0.3,0.4,1.1,3,1.1,3l5.1-2.6c0,0-1-4.5-3.5-7.3
						c-0.5-0.5-1.8-2.3-2.9-2.8c-1.3-0.8-5.1-2.2-5.1-2.2s-7.4,1.1-7.6,1.1c-0.1,0-5.7,12.9-6.4,18.7c-0.1,0.9-0.2,3-0.2,5.6
						c0,0.3,0,0.7,0,1.1c0,1.4,19.5,0,19.6-0.2C95.2,93.5,96.5,92.4,94.9,83.1z"/>
					<path class="st12" d="M76.6,118.9"/>
					<path class="st13" d="M81.2,70.1c0,1.7,1.6,1.3,3.8,1.2c2.2-0.1,3.8,0,3.8-1.7s-2-2.5-4.2-2.5S83.4,69,81.2,70.1z"/>
					<path class="st14" d="M82,72c1.1,0.7,2.3,0.4,3-0.7c0,0-2-1.3-3-2l-0.6,0.1C81.1,70,80.8,71.1,82,72z"/>
					<path class="st14" d="M88.7,72.7c-1.5,0.7-3,0-3.7-1.4c0-0.1,2.8-1.4,4.1-2l0.9,0.1C90.2,70.3,90.4,71.8,88.7,72.7z"/>
					<path class="st14" d="M73.4,105.7c-0.1,1,0.7,1.8,1.7,1.8c0,0,6.6,0.5,11.6,0.3s12.1-1.3,12.1-1.3c1,0,1.8-0.9,1.6-1.9
						c0,0-2.3-3.5-4-14.4c-1.3-8.4-3.2-19.4-3.2-19.4c-1.2-1.2-2.5-1.2-2.5-1.2l-0.6,6.5c0,0.8-0.7,1.4-1.4,1.3
						c-2.3-0.3-5.7-0.6-6.7-0.7c-1.5-0.1-1.8-1-1.8-2.1c0.1-1.1,1.2-5.2,1.2-5.2h-0.5c0,0-4.6,4.2-6.8,15.9
						C71.9,97.6,73.4,105.7,73.4,105.7z"/>
					<g>
						
							<rect x="79.1" y="84.4" transform="matrix(8.070673e-02 -0.9967 0.9967 8.070673e-02 -9.3641 161.5463)" class="st15" width="7.5" height="2.8"/>
						
							<rect x="82.3" y="88.7" transform="matrix(8.070673e-02 -0.9967 0.9967 8.070673e-02 -14.0095 165.102)" class="st15" width="0.5" height="2.8"/>
						
							<rect x="82" y="90.8" transform="matrix(8.070673e-02 -0.9967 0.9967 8.070673e-02 -16.1509 166.8903)" class="st15" width="0.8" height="2.8"/>
						
							<rect x="82.4" y="89.7" transform="matrix(8.070673e-02 -0.9967 0.9967 8.070673e-02 -14.9687 165.9725)" class="st15" width="0.2" height="2.8"/>
						
							<rect x="82.3" y="90" transform="matrix(8.070673e-02 -0.9967 0.9967 8.070673e-02 -15.3505 166.1472)" class="st15" width="0.2" height="2.8"/>
						<path class="st15" d="M84.7,84.7l0.2-2.4c0,0,1.9,0.2,2.1,0.2s1.4,0.1,2.2,0.8c0.8,0.7,1.2,1.8,1,3.2
							c-0.1,1.4-0.6,2.2-1.3,2.8c-0.7,0.6-2,0.7-2.4,0.6s-2.2-0.2-2.2-0.2l0.2-2.5c0,0,1.7,0.1,1.9,0.2c0.7,0.1,1.3-0.3,1.4-1.1
							c0.1-1-0.6-1.4-1.2-1.4C86,84.8,84.7,84.7,84.7,84.7z"/>
					</g>
					<g>
						<path class="st10" d="M70,50c-1.9,9,4.3,18,13.8,20s18.8-3.7,20.7-12.8c1.9-9-4.3-18-13.8-20S71.9,40.9,70,50z"/>
						<path class="st16" d="M60.6,45.5c-1.1,1-0.3,6.4,2.7,6c3.2-0.4,3.5-4.2,4.5-10s2.9-14.3,10.2-18c7.3-3.7,13.9,0.8,16,4.5
							c1.6,2.8,1.2,5.7,1,6.8c-1.1-0.5-2.3-0.9-3.6-1.2l0,0c-0.1,0-0.1,0-0.2,0s-0.1,0-0.2,0l0,0C77.8,31,72,42,69.9,53.3
							c-0.5,1.9,0.9,5.6,0.9,5.8c-2.3,1.3-4.4,2.1-5.6,2.3c-5.8,1-11.3-2.4-10.2-9C55.8,48.2,59.5,46,60.6,45.5z"/>
						<path class="st17" d="M69.4,54.1c0,0,0.3-4.7,2.2-9.8c2.5-6.8,8.9-13,19.5-11.9c10.9,2.3,14.6,10.8,14.5,17.7
							c0.1,5.8-2,10.5-2,10.5s-2.5-3.4-5.7-5.2v-5.5L96.4,55l-3.8-1.2l0.6-7.4l-2.8,6.8C90.5,53.1,73.7,49.1,69.4,54.1z"/>
						<path class="st14" d="M72.7,41.7c0,0,6.9-9.1,18.7-6.7c11.8,2.5,14.1,13.7,14.1,13.7s-0.1-13.3-13.6-16.2
							C78.4,29.7,72.7,41.7,72.7,41.7z"/>
						<path class="st18" d="M76.5,59.7c-0.1,0.4-0.7,0.6-2,0.4c-1.3-0.3-1.8-0.7-1.7-1.1c0.1-0.4,0.7-0.6,2-0.4
							C76.1,58.8,76.6,59.3,76.5,59.7z"/>
						<g>
							<path d="M79.1,59.4c0.9,0.3,2-0.3,2.4-1.8c0.5-1.7,0-3-0.8-3.3c-1-0.4-2.1,0.3-2.6,1.9C77.6,57.8,78,59,79.1,59.4z"/>
							<path class="st15" d="M81.7,58.5c0,0.2-0.4,0.4-1.1,0.3c-0.7-0.2-1-0.5-0.9-0.7c0-0.2,0.4-0.4,1.1-0.3
								C81.5,57.9,81.7,58.2,81.7,58.5z"/>
						</g>
						<g>
							<path d="M91.7,62.5c0.9,0.3,2-0.3,2.4-1.8c0.5-1.7,0-3-0.8-3.3c-1-0.4-2.1,0.3-2.6,1.9C90.2,60.8,90.5,62.1,91.7,62.5z"/>
							<path class="st15" d="M94.2,61.5c0,0.2-0.4,0.4-1.1,0.3c-0.7-0.2-1-0.5-0.9-0.7c0-0.2,0.4-0.4,1.1-0.3
								C94,61,94.3,61.3,94.2,61.5z"/>
						</g>
						<path class="st18" d="M94.7,63.5c-0.1,0.4,0.4,0.9,1.7,1.1c1.3,0.3,1.9,0.1,2-0.4c0.1-0.4-0.4-0.9-1.7-1.1
							C95.5,62.9,94.8,63.1,94.7,63.5z"/>
						
							<ellipse transform="matrix(0.2239 -0.9746 0.9746 0.2239 2.5506 132.0505)" class="st19" cx="84.2" cy="64.4" rx="1.7" ry="1.4"/>
					</g>
				</g>
			</g>
			<g>
				<defs>
					<path id="SVGID_00000049908916260954718680000010948469426164055687_" d="M26,83.4l0.8-67.9l82.5,2.8l-2.6,66l-34,0.2L66,78.8
						L29.9,79C27.5,79,25.7,81.1,26,83.4z"/>
				</defs>
				<clipPath id="SVGID_00000004520993844859012630000009113383519134650020_">
					<use xlink:href="#SVGID_00000049908916260954718680000010948469426164055687_"  style="overflow:visible;"/>
				</clipPath>
				<g style="clip-path:url(#SVGID_00000004520993844859012630000009113383519134650020_);">
					<g>
						<circle class="st21" cx="79.6" cy="55" r="9.3"/>
					</g>
					<g>
						<path class="st22" d="M78,47.8c0-0.3,0.2-0.6,0.5-0.7c4.7-0.6,9,2.7,9.6,7.3c0,0.3-0.2,0.6-0.5,0.7c-0.3,0-0.6-0.2-0.7-0.5
							c-0.5-4-4.2-6.9-8.3-6.3C78.3,48.4,78,48.1,78,47.8z"/>
					</g>
					<path class="st23" d="M70,56.2c-0.7-5.3,3-10.1,8.3-10.8c5.3-0.7,10.1,3,10.8,8.3c0.7,5.3-3,10.1-8.3,10.8
						C75.6,65.2,70.7,61.5,70,56.2z M88.5,53.8c-0.7-4.9-5.2-8.4-10.1-7.8c-4.9,0.7-8.4,5.2-7.8,10.1c0.7,4.9,5.2,8.4,10.1,7.8
						C85.7,63.3,89.2,58.7,88.5,53.8z"/>
					<g>
						<g>
							<ellipse class="st24" cx="79.6" cy="55" rx="9.3" ry="9.3"/>
							<g>
								<path class="st25" d="M74.1,64.3C74.1,64.3,74.1,64.4,74.1,64.3c2,1.2,4.4,1.7,6.9,1.4c6-0.8,10.1-6.3,9.4-12.2
									s-6.3-10.1-12.2-9.4c-6,0.8-10.1,6.3-9.4,12.2c0.3,2.5,1.5,4.6,3.1,6.3l1.4,1.1L74.1,64.3z M70.3,56.2
									c-0.7-5.1,2.9-9.8,8-10.5s9.8,2.9,10.5,8s-2.9,9.8-8,10.5C75.7,64.9,71,61.3,70.3,56.2z"/>
							</g>
							<path class="st25" d="M74.1,64.4C74.1,64.4,74.1,64.3,74.1,64.4l-0.8-0.6l-1.4-1.1l0,0c-0.2-0.1-0.4-0.1-0.6,0.1l-0.4,0.6
								c0.3,0.1,0.9,0.5,1.5,1c0.6,0.4,1.1,0.9,1.4,1.2l0.4-0.6C74.3,64.8,74.3,64.5,74.1,64.4z"/>
							<path class="st26" d="M67.2,74.3l6.7-8.6c0,0,0-0.1-0.1-0.2c-0.2-0.3-0.8-0.7-1.4-1.2s-1.2-0.9-1.5-1c-0.1,0-0.2-0.1-0.2,0
								L64,71.9c-0.7,0.9-0.5,2.1,0.4,2.8C65.2,75.3,66.5,75.2,67.2,74.3z"/>
						</g>
					</g>
				</g>
			</g>
		</g>
		<path class="st10" d="M96.3,84.4h-5.1l-0.4-1.2l1.5-0.5C92.3,82.8,94,83,96.3,84.4z"/>
	</g>
	<ellipse transform="matrix(0.6521 -0.7582 0.7582 0.6521 -30.6405 74.4848)" class="st10" cx="65.8" cy="70.6" rx="2.7" ry="1.2"/>
	<path class="st1" d="M106.7,84.3l-10.4,0.1h-5.1l-18.5,0.1L66,78.8L29.9,79c-2.3,0-4.1,2.1-3.8,4.4l6,44.5l74.9-0.5L106.7,84.3z"/>
	
		<ellipse transform="matrix(3.532007e-02 -0.9994 0.9994 3.532007e-02 3.9985 171.6373)" class="st10" cx="90.9" cy="83.7" rx="1.2" ry="2.7"/>
</g>
</svg>
